# xmcd
#
# Track frame offsets: 
#        150
#        17726
#        55495
#        78196
#        95169
#        120604
#        156396
#        175685
#        190383
#        210732
#        238591
#        264643
#        285865
#
# Disc length: 4275 seconds
#
# Revision: 1
# Processed by: cddbd v1.5.2PL0 Copyright (c) Steve Scherf et al.
# Submitted via: ExactAudioCopy v0.99pb4
#
DISCID=b210b10d
DTITLE=Rebirth Brass Band - Ultimate Rebirth Brass Band
DYEAR=2004
DGENRE=Jazz
TTITLE0=(I Feel Like) Busting Loose
TTITLE1=Do Whatcha Wanna
TTITLE2=New Orleans Music
TTITLE3=Carnival Time
TTITLE4=Feel Like Funkin' It Up
TTITLE5=Let's Do It Again
TTITLE6=Cassanova
TTITLE7=All Blues
TTITLE8=I Ate Up The Apple Tree
TTITLE9=Just The Two Of Us
TTITLE10=Tornado Special - Ooh Nah Nay
TTITLE11=Shotgun Joe
TTITLE12=Let Me Do My Thing
EXTD=
EXTT0=
EXTT1=
EXTT2=
EXTT3=
EXTT4=
EXTT5=
EXTT6=
EXTT7=
EXTT8=
EXTT9=
EXTT10=
EXTT11=
EXTT12=
PLAYORDER=
